<?xml version="1.0" standalone="no"?>
<!DOCTYPE svg PUBLIC "-//W3C//DTD SVG 20010904//EN"
 "http://www.w3.org/TR/2001/REC-SVG-20010904/DTD/svg10.dtd">
<svg version="1.0" xmlns="http://www.w3.org/2000/svg"
 width="722.000000pt" height="722.000000pt" viewBox="0 0 722.000000 722.000000"
 preserveAspectRatio="xMidYMid meet">
<metadata>
Created by potrace 1.11, written by Peter Selinger 2001-2013
</metadata>
<g transform="translate(0.000000,722.000000) scale(0.100000,-0.100000)"
fill="#000000" stroke="none">
<path d="M3143 7194 c-87 -43 -89 -57 -88 -494 l0 -371 -35 -8 c-40 -10 -90
-23 -105 -27 -253 -66 -525 -183 -752 -324 l-62 -38 -263 262 c-145 145 -275
270 -289 280 -38 24 -110 23 -151 -2 -60 -38 -616 -604 -633 -645 -15 -36 -14
-73 4 -120 5 -13 129 -143 275 -289 146 -147 266 -269 266 -273 0 -4 -8 -19
-19 -33 -57 -81 -243 -448 -256 -507 -1 -5 -5 -17 -8 -25 -36 -94 -83 -254
-104 -350 -3 -14 -6 -32 -8 -40 -2 -8 -4 -17 -4 -20 -1 -3 -182 -5 -404 -5
l-404 0 -37 -29 c-66 -50 -66 -48 -66 -521 0 -497 -1 -493 90 -540 31 -16 72
-18 429 -19 l394 -1 29 -110 c29 -112 70 -246 93 -300 7 -16 28 -66 46 -110
40 -95 135 -283 155 -306 8 -8 14 -19 14 -22 0 -4 16 -31 35 -60 l35 -53 -271
-269 c-149 -149 -277 -282 -285 -298 -20 -37 -20 -106 -1 -143 20 -38 616
-630 642 -638 106 -30 109 -27 424 288 l278 278 89 -54 c242 -146 509 -255
776 -319 l97 -23 3 -407 3 -408 30 -31 c59 -62 42 -60 527 -57 l443 2 37 25
c68 45 69 55 66 492 l-3 388 25 5 c14 3 34 7 45 10 263 55 593 195 863 365
l52 33 268 -267 c147 -147 281 -273 296 -281 36 -19 84 -19 127 -1 43 18 634
610 648 649 16 40 14 83 -5 120 -9 18 -136 153 -283 300 -146 147 -268 270
-269 272 -2 2 16 36 41 77 72 119 197 373 197 401 0 7 4 17 9 22 15 17 98 286
125 406 l6 27 389 0 c384 0 390 0 429 22 22 12 49 39 61 60 20 37 21 46 18
482 l-2 445 -29 37 c-49 65 -49 65 -475 66 -212 0 -386 2 -387 3 -2 1 -5 14
-7 27 -3 14 -10 43 -16 65 -6 22 -12 49 -14 60 -2 11 -6 27 -9 35 -3 8 -20 62
-38 119 -54 176 -148 384 -255 562 l-56 93 275 276 c150 151 279 285 285 297
14 27 14 93 1 128 -11 28 -584 608 -631 639 -34 21 -107 23 -145 3 -16 -9
-150 -137 -298 -285 l-268 -270 -77 48 c-182 112 -381 206 -576 270 -55 18
-104 34 -110 35 -17 4 -23 6 -57 16 -18 6 -42 12 -53 14 -11 3 -40 9 -65 15
l-45 11 1 362 c0 379 -5 431 -44 467 -54 50 -52 50 -514 50 -372 0 -437 -3
-465 -16z m702 -2218 c335 -58 610 -218 831 -481 131 -156 249 -397 280 -568
2 -17 7 -33 9 -36 10 -17 19 -142 19 -266 0 -179 -13 -270 -61 -420 -149 -464
-529 -811 -1008 -921 -109 -25 -150 -28 -305 -28 -150 0 -197 5 -297 30 -32 8
-68 17 -81 19 -34 8 -138 48 -207 81 -331 156 -594 455 -709 806 -56 170 -69
260 -68 453 1 111 21 264 45 340 2 6 9 30 16 55 16 56 31 93 81 195 35 71 122
211 139 225 4 3 17 19 30 35 90 118 249 250 401 333 47 26 87 47 90 47 3 1 41
15 85 32 99 39 238 72 330 80 39 3 71 7 73 8 9 8 231 -6 307 -19z"/>
</g>
</svg>
